<svg width="43" height="47" viewBox="0 0 43 47" fill="none" xmlns="http://www.w3.org/2000/svg">
<g filter="url(#filter0_d_372_110)">
<path d="M37.7852 26.7361C37.6384 26.5665 37.4942 26.3968 37.3526 26.2331C35.4064 23.976 34.2289 22.6138 34.2289 16.2242C34.2289 12.9162 33.4035 10.2019 31.7766 8.16616C30.5769 6.66228 28.9553 5.52143 26.818 4.6783C26.7905 4.66363 26.7659 4.64439 26.7454 4.62147C25.9767 2.15317 23.8729 0.5 21.5002 0.5C19.1275 0.5 17.0247 2.15317 16.2559 4.61893C16.2354 4.641 16.2112 4.65964 16.1842 4.67406C11.1965 6.64277 8.77247 10.4199 8.77247 16.2217C8.77247 22.6138 7.59674 23.976 5.64869 26.2306C5.50715 26.3943 5.36295 26.5605 5.21609 26.7336C4.83674 27.1722 4.5964 27.7059 4.52349 28.2714C4.45059 28.8369 4.54818 29.4106 4.80472 29.9246C5.35056 31.0272 6.5139 31.7117 7.84179 31.7117H35.1684C36.4901 31.7117 37.6455 31.0281 38.1931 29.9305C38.4507 29.4164 38.5492 28.8422 38.4769 28.2761C38.4047 27.7099 38.1646 27.1755 37.7852 26.7361ZM21.5002 38.5C22.7786 38.499 24.0329 38.1663 25.13 37.5372C26.2271 36.908 27.1262 36.0059 27.7318 34.9265C27.7604 34.8747 27.7745 34.8168 27.7727 34.7583C27.771 34.6998 27.7536 34.6428 27.722 34.5926C27.6905 34.5425 27.646 34.5011 27.5929 34.4723C27.5397 34.4436 27.4797 34.4285 27.4187 34.4286H15.5835C15.5224 34.4284 15.4623 34.4433 15.409 34.472C15.3558 34.5007 15.3111 34.5421 15.2795 34.5923C15.2479 34.6424 15.2303 34.6995 15.2286 34.7581C15.2268 34.8167 15.2409 34.8747 15.2695 34.9265C15.8751 36.0058 16.774 36.9078 17.871 37.5369C18.9679 38.1661 20.222 38.4989 21.5002 38.5Z" fill="#666666"/>
</g>
<defs>
<filter id="filter0_d_372_110" x="0.5" y="0.5" width="42" height="46" filterUnits="userSpaceOnUse" color-interpolation-filters="sRGB">
<feFlood flood-opacity="0" result="BackgroundImageFix"/>
<feColorMatrix in="SourceAlpha" type="matrix" values="0 0 0 0 0 0 0 0 0 0 0 0 0 0 0 0 0 0 127 0" result="hardAlpha"/>
<feOffset dy="4"/>
<feGaussianBlur stdDeviation="2"/>
<feComposite in2="hardAlpha" operator="out"/>
<feColorMatrix type="matrix" values="0 0 0 0 0 0 0 0 0 0 0 0 0 0 0 0 0 0 0.25 0"/>
<feBlend mode="normal" in2="BackgroundImageFix" result="effect1_dropShadow_372_110"/>
<feBlend mode="normal" in="SourceGraphic" in2="effect1_dropShadow_372_110" result="shape"/>
</filter>
</defs>
</svg>
